<svg xmlns="http://www.w3.org/2000/svg" width="50" height="50" viewBox="0 0 60 60" id="icon"><g><path d="M29.99 51.776a1.463 1.463 0 0 1-.953-.363C11.5 39.73 11.054 20.367 11.142 16.593l.002-.083c-.006-1.436 1.32-1.61 3.155-1.853 3.31-.435 10.202-1.34 14.65-6.005.54-.57 1.564-.57 2.104 0 4.528 4.748 11.487 5.64 14.827 6.067 1.708.216 3.054.387 2.977 1.866l.003.15c.05 5.32-1.102 23.513-17.927 34.7a1.51 1.51 0 0 1-.944.34zM14.004 17.593C14.06 22.56 15.428 38.477 30 48.603c14.217-9.875 15.895-25.24 15.994-30.98l-.474-.06c-3.17-.406-10.325-1.32-15.517-5.945-5.08 4.537-11.924 5.438-15.33 5.883-.223.03-.456.06-.668.094z"/><path d="M16.233 19.458c3.474-.498 9.05-1.57 13.767-5.06V27.08H17.523a38.918 38.918 0 0 1-1.29-7.622zM30.005 45.95L30 45.94V27.08h12.493c-1.613 6.044-5.09 13.256-12.488 18.87z"/></g></svg>