<svg xmlns="http://www.w3.org/2000/svg" width="50" height="50" viewBox="0 0 60 60" id="icon"><path d="M44.13 14.456l2.827-5.653H13.043l2.826 5.653H7.39v7.064c0 2.69.033 8.644 9.583 9.71a14.147 14.147 0 0 0 10.2 8.378v3.11c0 5.653-11.304 5.653-14.13 5.653V51.2h33.913V48.37c-2.827 0-14.13 0-14.13-5.65v-3.112A14.168 14.168 0 0 0 43.03 31.23c9.545-1.065 9.578-7.02 9.578-9.71v-7.063h-8.48zm-28.26 13.78c-5.63-1.07-5.653-4.383-5.653-6.716v-4.238h5.652v10.954zm18.24-2.886l2.28 7.527-6.46-4.493-6.457 4.493 2.28-7.527-6.27-4.75 7.864-.164 2.582-7.427 2.583 7.425 7.86.164-6.264 4.75zm15.67-3.83c0 2.334-.015 5.647-5.65 6.717V17.282h5.65v4.24z"/></svg>