<?xml version="1.0" encoding="UTF-8" standalone="no"?>
<svg
   xmlns:dc="http://purl.org/dc/elements/1.1/"
   xmlns:cc="http://creativecommons.org/ns#"
   xmlns:rdf="http://www.w3.org/1999/02/22-rdf-syntax-ns#"
   xmlns:svg="http://www.w3.org/2000/svg"
   xmlns="http://www.w3.org/2000/svg"
   id="svg14"
   version="1.1"
   height="64"
   width="64"
   viewBox="0 0 64 64">
  <metadata
     id="metadata20">
    <rdf:RDF>
      <cc:Work
         rdf:about="">
        <dc:format>image/svg+xml</dc:format>
        <dc:type
           rdf:resource="http://purl.org/dc/dcmitype/StillImage" />
        <dc:title>map pin red</dc:title>
      </cc:Work>
    </rdf:RDF>
  </metadata>
  <defs
     id="defs18" />
  <title
     id="title2">map pin red</title>
  <g
     id="g12"
     transform="matrix(0.03625131,0,0,0.03625131,-14.011096,-8.6806289)">
    <title
       id="title4">Layer 1</title>
    <g
       id="g10"
       transform="translate(28.715)">
      <path
         id="path6"
         style="clip-rule:evenodd;fill:#ff0000;fill-rule:evenodd;stroke:#990000;stroke-width:37;stroke-miterlimit:10"
         stroke-miterlimit="10"
         d="M 1241.9,1959.6 C 1203.13,1769.3 1134.78,1610.93 1052,1464.16 990.593,1355.29 919.46,1254.8 853.64,1149.22 c -21.972,-35.24 -40.934,-72.48 -62.047,-109.05 -42.216,-73.14 -76.444,-157.94 -74.269,-267.93 2.125,-107.47 33.208,-193.68 78.03,-264.17 73.719,-115.94 197.2,-210.99 362.88,-235.97 135.47,-20.424 262.48,14.082 352.54,66.748 73.6,43.038 130.6,100.53 173.92,168.28 45.22,70.716 76.36,154.26 78.97,263.23 1.3401,55.83 -7.7999,107.53 -20.68,150.42 -13.03,43.409 -33.99,79.698 -52.64,118.46 -36.41,75.66 -82.05,144.98 -127.86,214.34 -136.44,206.61 -264.5,417.31 -320.58,706.03 z" />
      <circle
         id="circle8"
         style="clip-rule:evenodd;fill:#7f0000;fill-rule:evenodd"
         r="183.33"
         cy="740.04999"
         cx="1240.5" />
    </g>
  </g>
</svg>
