<svg width="1807" height="1807" version="1.1" xmlns="http://www.w3.org/2000/svg">
 <title>map pin red</title>
 <g transform="translate(-365.71 -247.43)">
  <title>Layer 1</title>
  <g transform="translate(28.715)">
   <path d="m1241.9 1959.6c-38.77-190.3-107.12-348.67-189.9-495.44-61.407-108.87-132.54-209.36-198.36-314.94-21.972-35.24-40.934-72.48-62.047-109.05-42.216-73.14-76.444-157.94-74.269-267.93 2.125-107.47 33.208-193.68 78.03-264.17 73.719-115.94 197.2-210.99 362.88-235.97 135.47-20.424 262.48 14.082 352.54 66.748 73.6 43.038 130.6 100.53 173.92 168.28 45.22 70.716 76.36 154.26 78.97 263.23 1.3401 55.83-7.7999 107.53-20.68 150.42-13.03 43.409-33.99 79.698-52.64 118.46-36.41 75.66-82.05 144.98-127.86 214.34-136.44 206.61-264.5 417.31-320.58 706.03z" stroke-miterlimit="10" style="clip-rule:evenodd;fill-rule:evenodd;fill:#f00;stroke-miterlimit:10;stroke-width:37;stroke:#900"/>
   <circle cx="1240.5" cy="740.05" r="183.33" style="clip-rule:evenodd;fill-rule:evenodd;fill:#7f0000"/>
  </g>
 </g>
</svg>
