<?xml version="1.0" encoding="UTF-8" standalone="no"?>
<svg
   xmlns:dc="http://purl.org/dc/elements/1.1/"
   xmlns:cc="http://creativecommons.org/ns#"
   xmlns:rdf="http://www.w3.org/1999/02/22-rdf-syntax-ns#"
   xmlns:svg="http://www.w3.org/2000/svg"
   xmlns="http://www.w3.org/2000/svg"
   xmlns:sodipodi="http://sodipodi.sourceforge.net/DTD/sodipodi-0.dtd"
   xmlns:inkscape="http://www.inkscape.org/namespaces/inkscape"
   width="102.922"
   height="67.380501"
   version="1.0"
   id="svg18"
   sodipodi:docname="price-tag.svg"
   inkscape:version="0.92.0 r15299">
  <defs
     id="defs22" />
  <sodipodi:namedview
     pagecolor="#ffffff"
     bordercolor="#666666"
     borderopacity="1"
     objecttolerance="10"
     gridtolerance="10"
     guidetolerance="10"
     inkscape:pageopacity="0"
     inkscape:pageshadow="2"
     inkscape:window-width="1762"
     inkscape:window-height="1122"
     id="namedview20"
     showgrid="false"
     fit-margin-top="0"
     fit-margin-left="0"
     fit-margin-right="0"
     fit-margin-bottom="0"
     inkscape:zoom="3.3617756"
     inkscape:cx="9.5982109"
     inkscape:cy="17.008589"
     inkscape:window-x="122"
     inkscape:window-y="34"
     inkscape:window-maximized="0"
     inkscape:current-layer="svg18" />
  <metadata
     id="metadata2">
    <rdf:RDF>
      <cc:Work
         rdf:about="">
        <dc:format>image/svg+xml</dc:format>
        <dc:type
           rdf:resource="http://purl.org/dc/dcmitype/StillImage" />
        <dc:title></dc:title>
      </cc:Work>
    </rdf:RDF>
  </metadata>
  <path
     d="M 77.0146,12.83 C 61.1186,23.472 55.3016,20.864 55.6176,6.2072 42.5346,20.9932 39.6496,12.6045 29.9556,0 38.1771,23.818 16.8446,17.2 1.2906,9.7043005 11.2735,17.0494 22.8346,35.6013 3.6389,33.1693 c 0,0 6.5537,1.1231 5.9593002,5.1544 0,0 0.03642,2.098 -4.0437002,4.2937 0,0 -2.5958,1.7909 -5.5545,2.7099 13.316,-1.2296 32.724,-5.1889 25.351,16.227 15.911,-9.5256 20.553,-10.557 21.57,5.8262 6.8908,-16.236999 21.689,-11.456 31.535,-3.226699 -8.9506,-17.189 14.008,-12.321 24.466,-8.5209 -8.4481,-6.1639 -29.337,-13.565 -7.4541,-18.805 0,0 -29.035,1.1091 0.10406,-11.513 -18.809,1.3106 -40.443,6.2362 -18.557,-12.484 z"
     style="fill:#cc0033"
     id="path4"
     inkscape:connector-curvature="0" />
  <path
     d="M 99.531598,53.996 C 89.5607,48.4813 76.9116,42.385 91.372,37.315 72.083,36.1933 87.018,28.927 91.85872,26.286 c -11.909,1.4735 -34.593,4.8109 -20.12,-9.5158 -13.968,7.9071 -16.497,0.17355 -17.11,-7.9982995 C 44.60872,19.5529 39.11672,14.8844 31.86472,3.7053 c 4.5393,19.761 -15.394,13.443 -25.265,9.2502 6.7911,7.1059 13.74,20.441 1.5805,21.174 0,0 6.9051,5.1524 -4.2267,10.173 18.361,-2.4184 26.585,0.66 22.602,15.642 14.672,-9.4543 20.305,-7.6361 20.818,5.2839 4.4947,-11.707 17.251,-11.905 29.151,-3.7981 -4.6577,-13.877 13.335,-10.312 23.006998,-7.4343 z"
     style="fill:#ffed00"
     id="path6"
     inkscape:connector-curvature="0" />
  <text
     transform="rotate(16)"
     x="53.436661"
     y="19.447315"
     style="font-style:normal;font-variant:normal;font-weight:bold;font-stretch:normal;font-size:16px;line-height:14.83600616px;font-family:'Comic Sans MS';-inkscape-font-specification:'Comic Sans MS, Bold';font-variant-ligatures:normal;font-variant-caps:normal;font-variant-numeric:normal;font-feature-settings:normal;text-align:center;letter-spacing:0px;word-spacing:0px;writing-mode:lr-tb;text-anchor:middle;fill:#000000;stroke-width:0.18545"
     xml:space="preserve"
     id="text16"><tspan
       sodipodi:role="line"
       id="tspan4515"
       x="53.436661"
       y="19.447315">от 400</tspan><tspan
       sodipodi:role="line"
       id="tspan4517"
       x="53.436661"
       y="34.283321">грн/ч</tspan></text>
</svg>
