<?xml version="1.0" encoding="UTF-8" standalone="no"?>
<svg
   xmlns:dc="http://purl.org/dc/elements/1.1/"
   xmlns:cc="http://creativecommons.org/ns#"
   xmlns:rdf="http://www.w3.org/1999/02/22-rdf-syntax-ns#"
   xmlns:svg="http://www.w3.org/2000/svg"
   xmlns="http://www.w3.org/2000/svg"
   id="svg18"
   version="1.0"
   height="68.028282"
   width="110.97968">
  <defs
     id="defs22" />
  <metadata
     id="metadata2">
    <rdf:RDF>
      <cc:Work
         rdf:about="">
        <dc:format>image/svg+xml</dc:format>
        <dc:type
           rdf:resource="http://purl.org/dc/dcmitype/StillImage" />
        <dc:title></dc:title>
      </cc:Work>
    </rdf:RDF>
  </metadata>
  <g
     transform="rotate(-30,46.714171,27.65604)"
     id="g4497">
    <path
       d="M 78.233,13.919 C 62.337,24.561 56.52,21.953 56.836,7.2962 43.753,22.0822 40.868,13.6935 31.174,1.089 c 8.2215,23.818 -13.111,17.2 -28.665,9.7043 9.9829,7.3451 21.544,25.897 2.3483,23.465 0,0 6.5537,1.1231 5.9593,5.1544 0,0 0.03642,2.098 -4.0437,4.2937 0,0 -2.5958,1.7909 -5.5545,2.7099 13.316,-1.2296 32.724,-5.1889 25.351,16.227 15.911,-9.5256 20.553,-10.557 21.57,5.8262 6.8908,-16.237 21.689,-11.456 31.535,-3.2267 -8.9506,-17.189 14.008,-12.321 24.466,-8.5209 -8.4481,-6.1639 -29.337,-13.565 -7.4541,-18.805 0,0 -29.035,1.1091 0.10406,-11.513 -18.809,1.3106 -40.443,6.2362 -18.557,-12.484 z"
       style="fill:#cc0033"
       id="path4" />
    <path
       d="M 100.75,55.085 C 90.7791,49.5703 78.13,43.474 92.5904,38.404 c -19.289,-1.1217 -4.354,-8.388 0.48672,-11.029 -11.909,1.4735 -34.593,4.8109 -20.12,-9.5158 -13.968,7.9071 -16.497,0.17355 -17.11,-7.9983 -10.02,10.781 -15.512,6.1125 -22.764,-5.0666 4.5393,19.761 -15.394,13.443 -25.265,9.2502 6.7911,7.1059 13.74,20.441 1.5805,21.174 0,0 6.9051,5.1524 -4.2267,10.173 18.361,-2.4184 26.585,0.66 22.602,15.642 14.672,-9.4543 20.305,-7.6361 20.818,5.2839 4.4947,-11.707 17.251,-11.905 29.151,-3.7981 -4.6577,-13.877 13.335,-10.312 23.007,-7.4343 z"
       style="fill:#ffed00"
       id="path6" />
    <text
       transform="rotate(16)"
       x="56.947502"
       y="16.478992"
       style="font-style:normal;font-variant:normal;font-weight:bold;font-stretch:normal;font-size:16px;line-height:14.83600616px;font-family:'Comic Sans MS';-inkscape-font-specification:'Comic Sans MS, Bold';font-variant-ligatures:normal;font-variant-caps:normal;font-variant-numeric:normal;font-feature-settings:normal;text-align:center;letter-spacing:0px;word-spacing:0px;writing-mode:lr-tb;text-anchor:middle;fill:#000000;stroke-width:0.18545"
       xml:space="preserve"
       id="text16"><tspan
         y="16.478992"
         x="56.947502"
         id="tspan4534">от</tspan></text>
    <text
       transform="rotate(16)"
       x="41.978085"
       y="32.166275"
       style="font-style:normal;font-variant:normal;font-weight:bold;font-stretch:normal;font-size:16px;line-height:14.83600616px;font-family:'Comic Sans MS';-inkscape-font-specification:'Comic Sans MS, Bold';font-variant-ligatures:normal;font-variant-caps:normal;font-variant-numeric:normal;font-feature-settings:normal;text-align:center;letter-spacing:0px;word-spacing:0px;writing-mode:lr-tb;text-anchor:middle;fill:#000000;stroke-width:0.18545"
       xml:space="preserve"
       id="text16-4"><tspan
         id="tspan4540"
         x="41.978085"
         y="32.166275">100</tspan></text>
    <text
       transform="rotate(16)"
       x="73.949974"
       y="32.237663"
       style="font-style:normal;font-variant:normal;font-weight:bold;font-stretch:normal;font-size:16px;line-height:14.83600616px;font-family:'Comic Sans MS';-inkscape-font-specification:'Comic Sans MS, Bold';font-variant-ligatures:normal;font-variant-caps:normal;font-variant-numeric:normal;font-feature-settings:normal;text-align:center;letter-spacing:0px;word-spacing:0px;writing-mode:lr-tb;text-anchor:middle;fill:#000000;stroke-width:0.18545"
       xml:space="preserve"
       id="text16-4-4"><tspan
         y="32.237663"
         x="73.949974"
         id="tspan4540-1">грн!</tspan></text>
  </g>
</svg>
